<svg xmlns="http://www.w3.org/2000/svg" width="250" height="60" viewBox="0 0 250 60">
  <defs>
    <style>
      .cls-1 {
        fill: #fff;
      }

      .cls-1, .cls-2 {
        fill-rule: evenodd;
      }

      .cls-2 {
        fill: red;
      }
    </style>
  </defs>
  <path id="Joke" class="cls-1" d="M25.6,16.017H33l-4.083,18.9c-1.108,5.308-4.317,7.117-8.167,7.117-3.267,0-5.367-1.633-5.367-4.9a11.039,11.039,0,0,1,.292-2.217l0.758-3.733H8.387L7.571,35.209a17.547,17.547,0,0,0-.35,3.383c0,7.175,5.308,11.667,12.367,11.667,10.267,0,15.692-5.192,17.734-14.817l5.658-26.6H27.054ZM55.4,50.259c11.025,0,18.317-8.05,18.317-17.792,0-6.708-5.075-11.492-12.542-11.492A17.509,17.509,0,0,0,43.271,38.709C43.271,45.475,47.821,50.259,55.4,50.259Zm1.167-6.942c-3.383,0-5.367-2.042-5.367-5.717,0-4.958,3.733-9.742,8.984-9.742,3.558,0,5.6,2.158,5.6,5.658C65.788,38.417,62.113,43.317,56.571,43.317ZM99.1,21.558c-1.517,7.35-4.433,9.975-9.217,9.975H88.187L93.029,8.841H85.037L76.345,49.676h7.992l2.392-11.259H88.6c0.875,0,1.692-.058,2.45-0.117L94.9,49.676h7.875l0.058-.408L98.162,36.375c5.075-2.625,7.642-7.817,8.75-14.817H99.1Zm37.274,7.409c0-5.25-4.141-7.992-10.15-7.992-10.092,0-18.142,6.767-18.142,17.909,0,7.525,4.959,11.375,12.309,11.375a33.5,33.5,0,0,0,11.9-2.275l-1.05-5.775a25.154,25.154,0,0,1-8.809,1.4c-3.791,0-6.3-1.4-6.533-5.017A48.193,48.193,0,0,0,122.02,39C132.579,39,136.37,34.275,136.37,28.967Zm-19.658,4.492c1.283-3.617,4.2-6.183,8.108-6.183,2.275,0,3.85.758,3.85,2.625,0,2.217-2.1,4.025-7,4.025A33.366,33.366,0,0,1,116.712,33.459Z"/>
  <path id="API" class="cls-2" d="M164.56,9.194l-27.242,40.6-0.117.583h9.917l4.317-6.767h16.1l1.459,6.767h8.691l0.117-.583-9.917-40.6H164.56ZM156.277,35.97l7.466-12.717L165.9,35.97h-9.625ZM190.868,9.544l-8.634,40.834h8.517L193.318,38.3h8.458c11.375,0,17.559-7.467,17.559-16.859,0-7.642-5.309-11.9-12.834-11.9H190.868Zm4.025,21.234,2.858-13.65h7.292c3.442,0,5.6,2.1,5.6,5.25,0,4.667-3.092,8.4-8.692,8.4h-7.058Zm42.875,19.6,1.458-7.059h-6.067l5.717-26.775h5.542l1.516-7h-19.6l-1.517,7h5.542L224.7,43.32h-6.067l-1.517,7.059h20.651Z"/>
</svg>
